<svg width="95" height="71" viewBox="0 0 95 71" fill="none" xmlns="http://www.w3.org/2000/svg">
<circle cx="5.5" cy="5.5" r="5.5" fill="#08357A"/>
<circle cx="5.5" cy="20.5" r="5.5" fill="#08357A"/>
<circle cx="5.5" cy="35.5" r="5.5" fill="#08357A"/>
<circle cx="5.5" cy="50.5" r="5.5" fill="#08357A"/>
<circle cx="19.5" cy="5.5" r="5.5" fill="#08357A"/>
<circle cx="19.5" cy="20.5" r="5.5" fill="#08357A"/>
<circle cx="19.5" cy="35.5" r="5.5" fill="#08357A"/>
<circle cx="19.5" cy="50.5" r="5.5" fill="#08357A"/>
<circle cx="33.5" cy="5.5" r="5.5" fill="#08357A"/>
<circle cx="33.5" cy="20.5" r="5.5" fill="#08357A"/>
<circle cx="33.5" cy="35.5" r="5.5" fill="#08357A"/>
<circle cx="33.5" cy="50.5" r="5.5" fill="#08357A"/>
<circle cx="47.5" cy="5.5" r="5.5" fill="#08357A"/>
<circle cx="47.5" cy="20.5" r="5.5" fill="#08357A"/>
<circle cx="47.5" cy="35.5" r="5.5" fill="#08357A"/>
<circle cx="47.5" cy="50.5" r="5.5" fill="#08357A"/>
<circle cx="61.5" cy="5.5" r="5.5" fill="#08357A"/>
<circle cx="61.5" cy="20.5" r="5.5" fill="#08357A"/>
<circle cx="61.5" cy="35.5" r="5.5" fill="#08357A"/>
<circle cx="61.5" cy="50.5" r="5.5" fill="#08357A"/>
<circle cx="75.5" cy="5.5" r="5.5" fill="#08357A"/>
<circle cx="75.5" cy="20.5" r="5.5" fill="#08357A"/>
<circle cx="75.5" cy="35.5" r="5.5" fill="#08357A"/>
<circle cx="75.5" cy="50.5" r="5.5" fill="#08357A"/>
<circle cx="89.5" cy="5.5" r="5.5" fill="#08357A"/>
<circle cx="89.5" cy="20.5" r="5.5" fill="#08357A"/>
<circle cx="89.5" cy="35.5" r="5.5" fill="#08357A"/>
<circle cx="89.5" cy="50.5" r="5.5" fill="#08357A"/>
<circle cx="5.5" cy="65.5" r="5.5" fill="#08357A"/>
<circle cx="19.5" cy="65.5" r="5.5" fill="#08357A"/>
<circle cx="33.5" cy="65.5" r="5.5" fill="#08357A"/>
<circle cx="47.5" cy="65.5" r="5.5" fill="#08357A"/>
<circle cx="61.5" cy="65.5" r="5.5" fill="#08357A"/>
<circle cx="75.5" cy="65.5" r="5.5" fill="#08357A"/>
<circle cx="89.5" cy="65.5" r="5.5" fill="#08357A"/>
</svg>
