<svg width="42" height="42" viewBox="0 0 42 42" fill="none" xmlns="http://www.w3.org/2000/svg">
<path d="M27.09 20.64C27.09 22.3506 26.4105 23.9912 25.2008 25.2008C23.9912 26.4105 22.3506 27.09 20.64 27.09C18.9294 27.09 17.2888 26.4105 16.0792 25.2008C14.8696 23.9912 14.19 22.3506 14.19 20.64C14.19 20.2724 14.2287 19.9133 14.2954 19.565H12.04V28.1586C12.04 28.7563 12.5238 29.24 13.1214 29.24H28.1607C28.4471 29.2394 28.7217 29.1252 28.924 28.9225C29.1264 28.7197 29.24 28.445 29.24 28.1586V19.565H26.9847C27.0513 19.9133 27.09 20.2724 27.09 20.64ZM20.64 24.94C21.2048 24.9399 21.7641 24.8285 22.2859 24.6122C22.8076 24.3959 23.2817 24.079 23.681 23.6795C24.0803 23.28 24.397 22.8058 24.613 22.2839C24.829 21.762 24.9401 21.2027 24.94 20.6379C24.9399 20.073 24.8285 19.5138 24.6122 18.992C24.3959 18.4702 24.079 17.9961 23.6795 17.5968C23.28 17.1976 22.8058 16.8809 22.2839 16.6648C21.762 16.4488 21.2027 16.3377 20.6379 16.3379C19.4971 16.3381 18.4033 16.7916 17.5968 17.5984C16.7904 18.4052 16.3376 19.4993 16.3379 20.64C16.3381 21.7807 16.7916 22.8746 17.5984 23.681C18.4052 24.4874 19.4993 24.9403 20.64 24.94ZM25.8 16.125H28.3779C28.5491 16.125 28.7134 16.0571 28.8347 15.9362C28.956 15.8153 29.0244 15.6513 29.025 15.48V12.9022C29.025 12.7305 28.9568 12.5659 28.8355 12.4445C28.7141 12.3232 28.5495 12.255 28.3779 12.255H25.8C25.6284 12.255 25.4638 12.3232 25.3424 12.4445C25.221 12.5659 25.1529 12.7305 25.1529 12.9022V15.48C25.155 15.8348 25.4453 16.125 25.8 16.125ZM20.64 0C15.1659 0 9.91607 2.17456 6.04532 6.04532C2.17456 9.91607 0 15.1659 0 20.64C0 26.1141 2.17456 31.3639 6.04532 35.2347C9.91607 39.1054 15.1659 41.28 20.64 41.28C23.3505 41.28 26.0344 40.7461 28.5386 39.7089C31.0427 38.6716 33.3181 37.1513 35.2347 35.2347C37.1513 33.3181 38.6716 31.0427 39.7089 28.5386C40.7461 26.0344 41.28 23.3505 41.28 20.64C41.28 17.9295 40.7461 15.2456 39.7089 12.7414C38.6716 10.2373 37.1513 7.96192 35.2347 6.04532C33.3181 4.12871 31.0427 2.60838 28.5386 1.57113C26.0344 0.533869 23.3505 0 20.64 0ZM31.39 29.0014C31.39 30.315 30.315 31.39 29.0014 31.39H12.2787C10.965 31.39 9.89 30.315 9.89 29.0014V12.2787C9.89 10.965 10.965 9.89 12.2787 9.89H29.0014C30.315 9.89 31.39 10.965 31.39 12.2787V29.0014Z" fill="#08357A"/>
</svg>
