<svg width="41" height="42" viewBox="0 0 41 42" fill="none" xmlns="http://www.w3.org/2000/svg">
<path d="M20.16 0C9.0258 0 0 9.2407 0 20.64C0 32.0393 9.0258 41.28 20.16 41.28C31.2942 41.28 40.32 32.0393 40.32 20.64C40.32 9.2407 31.2942 0 20.16 0ZM15.225 29.1949H11.1426V15.7445H15.225V29.1949ZM13.1586 14.0933C11.8692 14.0933 11.0355 13.158 11.0355 12.0013C11.0355 10.8209 11.8944 9.91365 13.2111 9.91365C14.5278 9.91365 15.3342 10.8209 15.3594 12.0013C15.3594 13.158 14.5278 14.0933 13.1586 14.0933ZM30.135 29.1949H26.0526V21.7408C26.0526 20.0058 25.4604 18.8276 23.9841 18.8276C22.8564 18.8276 22.1865 19.6252 21.8904 20.3928C21.7812 20.6658 21.7539 21.0528 21.7539 21.4377V29.1927H17.6694V20.0337C17.6694 18.3546 17.6169 16.9506 17.5623 15.7423H21.1092L21.2961 17.6107H21.378C21.9156 16.7334 23.2323 15.4391 25.4352 15.4391C28.1211 15.4391 30.135 17.2817 30.135 21.242V29.1949Z" fill="#08357A"/>
</svg>
