<svg width="18" height="25" viewBox="0 0 18 25" fill="none" xmlns="http://www.w3.org/2000/svg">
<path fill-rule="evenodd" clip-rule="evenodd" d="M9 0.5C4.1625 0.5 0.25 4.4125 0.25 9.25C0.25 14.4625 5.775 21.65 8.05 24.3875C8.55 24.9875 9.4625 24.9875 9.9625 24.3875C12.225 21.65 17.75 14.4625 17.75 9.25C17.75 4.4125 13.8375 0.5 9 0.5ZM9 12.375C7.275 12.375 5.875 10.975 5.875 9.25C5.875 7.525 7.275 6.125 9 6.125C10.725 6.125 12.125 7.525 12.125 9.25C12.125 10.975 10.725 12.375 9 12.375Z" fill="#7FB3E0"/>
</svg>
