<svg width="42" height="42" viewBox="0 0 42 42" fill="none" xmlns="http://www.w3.org/2000/svg">
<path d="M20.64 0C9.2407 0 0 9.2407 0 20.64C0 32.0393 9.2407 41.28 20.64 41.28C32.0393 41.28 41.28 32.0393 41.28 20.64C41.28 9.2407 32.0393 0 20.64 0ZM29.0358 16.9076C29.0444 17.0839 29.0465 17.2602 29.0465 17.4322C29.0465 22.8072 24.9594 29.0014 17.4817 29.0014C15.2721 29.005 13.1085 28.3704 11.2509 27.1739C11.567 27.2126 11.8917 27.2276 12.2206 27.2276C14.1255 27.2276 15.8778 26.5805 17.2688 25.4883C16.4211 25.4716 15.5997 25.1909 14.9191 24.6853C14.2385 24.1796 13.7326 23.4743 13.4719 22.6675C14.0807 22.7832 14.7078 22.7589 15.3059 22.5965C14.3858 22.4104 13.5583 21.9119 12.9639 21.1854C12.3694 20.4589 12.0445 19.5491 12.0443 18.6104V18.561C12.5926 18.8641 13.2204 19.049 13.8869 19.0705C13.0243 18.4963 12.4136 17.6142 12.1798 16.6047C11.9461 15.5952 12.1068 14.5345 12.6291 13.6396C13.6503 14.8952 14.9237 15.9224 16.367 16.6546C17.8103 17.3868 19.3913 17.8077 21.0077 17.8902C20.8022 17.0179 20.8906 16.1022 21.2592 15.2854C21.6278 14.4686 22.256 13.7965 23.046 13.3736C23.836 12.9506 24.7436 12.8005 25.6278 12.9466C26.5119 13.0927 27.323 13.5268 27.935 14.1814C28.8448 14.0014 29.7173 13.6677 30.515 13.1946C30.2117 14.1365 29.5769 14.9364 28.7283 15.4456C29.5342 15.3485 30.3212 15.1319 31.0632 14.8028C30.5181 15.6195 29.8315 16.3323 29.0358 16.9076Z" fill="#08357A"/>
</svg>
